<svg width="148" height="48" viewBox="0 0 148 48" fill="none" xmlns="http://www.w3.org/2000/svg">
<path fill-rule="evenodd" clip-rule="evenodd" d="M92.1853 8.90117C92.4613 9.40718 92.5993 10.0282 92.5993 10.7642C92.5993 11.5462 92.4613 12.1902 92.1853 12.6962C91.9093 13.2022 91.5183 13.6162 91.0123 13.9382C90.5523 14.2142 90.0693 14.4212 89.5633 14.5592C89.0113 14.6513 88.5053 14.6973 88.0453 14.6973H85.5612V20.7003H83.4912V6.90015H87.7003C88.3443 6.90015 88.9423 6.94615 89.4943 7.03815C90.0923 7.17615 90.6213 7.40615 91.0813 7.72816C91.5413 8.00416 91.9093 8.39517 92.1853 8.90117ZM89.7703 9.31518C89.3563 8.99317 88.7813 8.83217 88.0453 8.83217H85.5612V12.7652H88.0453C88.7813 12.7652 89.3563 12.6042 89.7703 12.2822C90.2303 11.9602 90.4603 11.4772 90.4603 10.8332C90.4603 10.1432 90.2303 9.63718 89.7703 9.31518Z" fill="#DFF44D"/>
<path d="M103.364 12.5582H96.7395V6.90015H94.6694V20.7003H96.7395V14.4902H103.364V20.7003H105.434V6.90015H103.364V12.5582Z" fill="#DFF44D"/>
<path fill-rule="evenodd" clip-rule="evenodd" d="M121.373 10.9022C121.741 11.7762 121.925 12.7423 121.925 13.8003C121.925 14.8123 121.741 15.7783 121.373 16.6983C121.005 17.5723 120.499 18.3313 119.855 18.9753C119.211 19.6194 118.452 20.1254 117.578 20.4934C116.704 20.8614 115.738 21.0454 114.68 21.0454C113.668 21.0454 112.724 20.8614 111.85 20.4934C110.93 20.1254 110.148 19.6194 109.504 18.9753C108.86 18.3313 108.377 17.5723 108.055 16.6983C107.687 15.7783 107.503 14.8123 107.503 13.8003C107.503 12.7423 107.687 11.7762 108.055 10.9022C108.377 10.0282 108.86 9.26921 109.504 8.6252C110.148 7.98119 110.93 7.47519 111.85 7.10718C112.724 6.73918 113.668 6.55518 114.68 6.55518C115.738 6.55518 116.704 6.73918 117.578 7.10718C118.452 7.47519 119.211 7.98119 119.855 8.6252C120.499 9.26921 121.005 10.0282 121.373 10.9022ZM119.372 11.7302C119.142 11.0862 118.797 10.5342 118.337 10.0742C117.877 9.56822 117.348 9.17721 116.75 8.90121C116.152 8.6252 115.462 8.4872 114.68 8.4872C113.944 8.4872 113.276 8.6252 112.678 8.90121C112.08 9.17721 111.551 9.56822 111.091 10.0742C110.631 10.5342 110.286 11.0862 110.056 11.7302C109.826 12.3743 109.711 13.0643 109.711 13.8003C109.711 14.5363 109.826 15.2263 110.056 15.8703C110.286 16.5143 110.631 17.0663 111.091 17.5263C111.551 18.0323 112.08 18.4233 112.678 18.6993C113.276 18.9753 113.944 19.1133 114.68 19.1133C115.462 19.1133 116.152 18.9753 116.75 18.6993C117.348 18.4233 117.877 18.0323 118.337 17.5263C118.751 17.0663 119.096 16.5143 119.372 15.8703C119.602 15.2263 119.717 14.5363 119.717 13.8003C119.717 13.0643 119.602 12.3743 119.372 11.7302Z" fill="#DFF44D"/>
<path d="M133.724 17.4573L126.341 6.90015H123.995V20.7003H126.065V10.1432L133.448 20.7003H135.794V6.90015H133.724V17.4573Z" fill="#DFF44D"/>
<path d="M140.693 18.7683V14.4902H147.041V12.5582H140.693V8.83217H147.524V6.90015H138.623V20.7003H147.8V18.7683H140.693Z" fill="#DFF44D"/>
<path d="M84.181 24.9094H88.1831L92.5301 34.1555H92.5991L93.8411 24.9094H96.8082L94.9452 38.2266H91.0811L86.596 28.7045H86.5271L85.216 38.2266H82.318L84.181 24.9094Z" fill="#DFF44D"/>
<path fill-rule="evenodd" clip-rule="evenodd" d="M97.8434 31.5335C97.9814 30.4755 98.3034 29.5095 98.8094 28.6355C99.2694 27.7615 99.8674 27.0255 100.603 26.4275C101.339 25.8295 102.167 25.3695 103.087 25.0475C104.007 24.7255 104.996 24.5645 106.054 24.5645C107.067 24.5645 108.01 24.7255 108.884 25.0475C109.712 25.3695 110.402 25.8295 110.954 26.4275C111.506 27.0255 111.897 27.7615 112.127 28.6355C112.357 29.5095 112.403 30.4755 112.265 31.5335C112.081 32.5916 111.759 33.5576 111.299 34.4316C110.839 35.3056 110.241 36.0416 109.505 36.6396C108.769 37.2836 107.941 37.7666 107.02 38.0886C106.1 38.4106 105.111 38.5716 104.053 38.5716C103.041 38.5716 102.098 38.4106 101.224 38.0886C100.396 37.7666 99.7064 37.2836 99.1544 36.6396C98.6024 36.0416 98.2114 35.3056 97.9814 34.4316C97.7514 33.5576 97.7054 32.5916 97.8434 31.5335ZM100.879 31.5335C100.787 32.1776 100.81 32.7526 100.948 33.2586C101.086 33.8106 101.316 34.2706 101.638 34.6386C101.914 35.0066 102.305 35.3056 102.811 35.5356C103.271 35.7196 103.823 35.8116 104.467 35.8116C105.065 35.8116 105.64 35.7196 106.192 35.5356C106.744 35.3056 107.227 35.0066 107.642 34.6386C108.056 34.2706 108.401 33.8106 108.677 33.2586C108.953 32.7526 109.114 32.1776 109.16 31.5335C109.252 30.9355 109.252 30.3605 109.16 29.8085C109.022 29.3025 108.792 28.8655 108.47 28.4975C108.148 28.0835 107.757 27.7845 107.296 27.6005C106.836 27.3705 106.284 27.2555 105.64 27.2555C104.996 27.2555 104.421 27.3705 103.915 27.6005C103.363 27.7845 102.88 28.0835 102.466 28.4975C102.052 28.8655 101.707 29.3025 101.431 29.8085C101.155 30.3605 100.971 30.9355 100.879 31.5335Z" fill="#DFF44D"/>
<path d="M113.782 24.9094H116.957L117.923 33.4655L121.925 24.9094H124.685L126.203 33.6725H126.272L129.722 24.9094H132.689L126.893 38.2266H124.271L122.615 28.9805L118.406 38.2266H115.852L113.782 24.9094Z" fill="#DFF44D"/>
<path d="M51.9578 0C45.2647 0 39.1926 2.76004 34.9145 7.2451H19.8033C18.4923 7.2451 17.3883 8.34911 17.3883 9.66013C17.3883 11.0401 18.4923 12.1442 19.8033 12.1442H35.1905C36.5705 12.1442 37.6746 13.1102 37.6746 14.2832C37.6746 15.4562 36.5705 16.4222 35.1905 16.4222H29.3255H5.58913C4.20912 16.4222 3.1051 17.5262 3.1051 18.9063C3.1051 20.2173 4.20912 21.3213 5.58913 21.3213H43.1256H44.0917C44.2757 21.3213 44.4827 21.3443 44.7127 21.3903C46.5757 14.4902 48.3697 7.79711 48.5077 7.4521C48.5077 7.3141 48.5767 7.1761 48.7147 7.03809C48.7837 6.83109 48.9907 6.69309 48.9907 6.69309C49.0597 6.62409 49.4047 6.34809 49.8187 6.34809L62.9289 5.65808C62.9979 5.65808 63.2049 5.65808 63.4119 5.72708C63.5499 5.72708 63.7569 5.79608 63.9639 5.93408C64.1709 6.07208 64.4469 6.34808 64.5849 6.83109L64.6539 7.03809C64.6539 7.1761 64.7229 7.3141 64.6539 7.5211V7.5901C64.6539 7.6591 60.3759 32.9824 59.9619 36.4325C59.8929 36.6395 59.8929 36.7085 59.8929 36.8465C59.8239 36.9845 59.7549 37.1225 59.6859 37.3295C59.6399 37.3755 59.6169 37.4215 59.6169 37.4675C59.5479 37.5365 59.4789 37.6055 59.4099 37.7435C59.3409 37.7435 59.2029 37.8815 59.1339 37.9505C58.9958 38.0885 58.9268 38.1575 58.7198 38.2265C58.6508 38.2265 58.5128 38.2955 58.4438 38.3645C58.3518 38.3645 58.2368 38.3875 58.0988 38.4335C57.9608 38.4335 57.7538 38.4105 57.4778 38.3645C42.9876 35.9495 42.9876 35.9495 42.9876 35.9495L42.8496 35.8805L42.6426 35.8115C42.5046 35.8115 42.4356 35.7425 42.2976 35.6735C42.1596 35.6045 42.0906 35.5355 41.9526 35.5355C41.8146 35.3975 41.6766 35.1905 41.5386 34.9835C41.5386 34.9145 41.4696 34.8455 41.4006 34.7075C41.4006 34.6385 41.3316 34.5005 41.3316 34.3625C41.3316 34.1555 41.2626 33.8795 41.4006 33.4654C41.9526 31.4644 42.7116 28.7044 43.5396 25.6683H16.5603C15.1803 25.6683 14.0762 26.7034 14.0762 28.0834C14.0762 29.4634 15.1803 30.4984 16.5603 30.4984H29.1874H37.9506C39.3306 30.4984 40.4346 31.6714 40.4346 33.0514C40.4346 34.4315 39.3306 35.5355 37.9506 35.5355H27.3934C26.0134 35.5355 24.9094 36.6395 24.9094 38.0195C24.9094 39.3305 26.0134 40.4345 27.3934 40.4345H35.0525C39.3306 44.7816 45.3337 47.4726 51.9578 47.4726C65.0679 47.4726 75.6941 36.8465 75.6941 23.7363C75.6941 10.6261 65.0679 0 51.9578 0Z" fill="#DFF44D"/>
<path fill-rule="evenodd" clip-rule="evenodd" d="M62.101 8.34922C61.894 10.0742 57.8229 31.5335 57.4779 34.2936C57.4779 34.4776 57.4319 34.6156 57.3399 34.7076C57.2939 34.8456 57.2019 34.9606 57.0639 35.0526C56.9719 35.1446 56.8569 35.2136 56.7189 35.2596C56.5809 35.3056 56.4429 35.3056 56.3049 35.2596C55.0629 35.0526 44.2988 33.3276 43.4017 33.1896C43.3097 33.1896 43.2177 33.1435 43.1257 33.0515C43.0337 33.0055 42.9647 32.9365 42.9187 32.8445C42.8727 32.7525 42.8497 32.6605 42.8497 32.5685C42.8497 32.4305 42.8727 32.2925 42.9187 32.1545C43.5397 29.8085 48.7148 10.1432 49.1288 8.55622C49.1748 8.51022 49.2208 8.44122 49.2668 8.34922C49.3128 8.30322 49.3588 8.25722 49.4048 8.21122C49.4968 8.11921 49.5888 8.07321 49.6808 8.07321C49.7268 8.02721 49.7958 8.00421 49.8878 8.00421C50.5778 7.86621 60.445 8.00421 61.411 7.86621C61.549 7.86621 61.664 7.86621 61.756 7.86621C61.802 7.91221 61.871 7.95821 61.963 8.00421C62.009 8.05021 62.055 8.09622 62.101 8.14222C62.101 8.18822 62.101 8.25722 62.101 8.34922ZM57.8229 9.38423C57.8229 9.10823 57.6849 8.97023 57.4089 8.97023H53.3379C53.1309 8.97023 52.9239 9.10823 52.9239 9.38423V9.45323C52.9239 9.66024 53.1309 9.86724 53.3379 9.86724H57.4089C57.6849 9.86724 57.8229 9.66024 57.8229 9.45323V9.38423Z" fill="#DFF44D"/>
<path d="M10.0741 26.0823H1.86302C0.828009 26.0823 0 27.1173 0 28.3593C0 29.6013 0.828009 30.6363 1.86302 30.6363H10.0741C11.1091 30.6363 11.9372 29.6013 11.9372 28.3593C11.9372 27.1173 11.1091 26.0823 10.0741 26.0823Z" fill="#DFF44D"/>
<path d="M20.8384 36.0188H15.5943C14.6283 36.0188 13.8003 36.9848 13.8003 38.2958C13.8003 39.5378 14.6283 40.5729 15.5943 40.5729H20.8384C21.8734 40.5729 22.6324 39.5378 22.6324 38.2958C22.6324 36.9848 21.8734 36.0188 20.8384 36.0188Z" fill="#DFF44D"/>
</svg>
